# xmcd
#
# Track frame offsets: 
#        150
#        15449
#        29044
#        45017
#        61028
#        74798
#        89753
#        106184
#        122159
#        135800
#        152414
#        166495
#        182393
#
# Disc length: 2621 seconds
#
# Revision: 0
# Processed by: cddbd v1.5.2PL0 Copyright (c) Steve Scherf et al.
# Submitted via: ExactAudioCopy v1.1
#
DISCID=9c0a3b0d
DTITLE=Lindsay - Samen
DYEAR=2019
DGENRE=Chanson
TTITLE0=Lindsay and Ianthe Tavernier - Niets Houdt Ons Nog Tegen
TTITLE1=Lindsay, Lisa Del Bo and Sasha - Jolene
TTITLE2=Lindsay and Lissa Lewis - Pak Maar M'n Hand
TTITLE3=Lindsay and Christoff - Mag Ik Dan Bij Jou
TTITLE4=Lindsay and Mieke - Laat De Zon Toch In Je Hart
TTITLE5=Lindsay and René Froger - Liefde Voor Altijd
TTITLE6=Lindsay and Bart Herman - De Klok Tikt Door
TTITLE7=Lindsay and Laura Lynn - Onder Het Maanlicht
TTITLE8=Lindsay and Luc Steeno - Je Verovert Mijn Hart
TTITLE9=Lindsay and Herbert - Voor Jou
TTITLE10=Lindsay and Jan Smit - Duizend En Eén Nacht
TTITLE11=Lindsay and De Romeo's - Laat Ons Feesten
TTITLE12=Het Is Nu Te Laat
EXTD=
EXTT0=
EXTT1=
EXTT2=
EXTT3=
EXTT4=
EXTT5=
EXTT6=
EXTT7=
EXTT8=
EXTT9=
EXTT10=
EXTT11=
EXTT12=
PLAYORDER=
